<svg width="24" height="24" viewBox="0 0 24 24" fill="none" xmlns="http://www.w3.org/2000/svg">
<g id="&#208;&#190; &#208;&#186;&#208;&#190;&#208;&#188;&#208;&#191;">
<g id="Group 393">
<path id="Vector" d="M18.1333 18.9334V5.46286C18.1333 4.65495 17.4784 4 16.6705 4H7.32953C6.52161 4 5.86667 4.65495 5.86667 5.46286V18.9334H4V20H20V18.9334H18.1333ZM17.0667 18.9334H12.5334V16.8H11.4667V18.9334H6.93334V5.06667H17.0667V18.9334Z" fill="#2F80ED"/>
<path id="Vector_2" d="M8.80005 13.6002H9.86672V14.6669H8.80005V13.6002ZM11.4667 13.6002H12.5334V14.6669H11.4667V13.6002ZM14.1334 13.6002H15.2001V14.6669H14.1334V13.6002ZM8.80005 10.4002H9.86672V11.4668H8.80005V10.4002ZM11.4667 10.4002H12.5334V11.4668H11.4667V10.4002ZM14.1334 10.4002H15.2001V11.4668H14.1334V10.4002ZM8.80005 7.2002H9.86672V8.26686H8.80005V7.2002ZM11.4667 7.2002H12.5334V8.26686H11.4667V7.2002ZM14.1334 7.2002H15.2001V8.26686H14.1334V7.2002Z" fill="#2F80ED"/>
</g>
</g>
</svg>
