<svg width="24" height="24" fill="none" xmlns="http://www.w3.org/2000/svg"><g fill="#2F80ED"><path d="M18.133 18.933V5.463c0-.808-.655-1.463-1.462-1.463H7.33c-.808 0-1.463.655-1.463 1.463v13.47H4V20h16v-1.067h-1.867Zm-1.066 0h-4.534V16.8h-1.066v2.133H6.933V5.067h10.134v13.866Z"/><path d="M8.8 13.6h1.067v1.067H8.8V13.6Zm2.667 0h1.066v1.067h-1.066V13.6Zm2.666 0H15.2v1.067h-1.067V13.6ZM8.8 10.4h1.067v1.067H8.8V10.4Zm2.667 0h1.066v1.067h-1.066V10.4Zm2.666 0H15.2v1.067h-1.067V10.4ZM8.8 7.2h1.067v1.067H8.8V7.2Zm2.667 0h1.066v1.067h-1.066V7.2Zm2.666 0H15.2v1.067h-1.067V7.2Z"/></g></svg>